<svg xmlns="http://www.w3.org/2000/svg" viewBox="0 0 64 64"><defs><linearGradient id="bg" x1="0" y1="0" x2="0" y2="1"><stop offset="0" stop-color="#6366f1"/><stop offset="1" stop-color="#3730a3"/></linearGradient><linearGradient id="fg" x1="0" y1="0" x2="0" y2="1"><stop offset="0" stop-color="#ffffff"/><stop offset="1" stop-color="#c7d2fe"/></linearGradient><linearGradient id="sheen" x1="0" y1="0" x2="0" y2="1"><stop offset="0" stop-color="#fff" stop-opacity=".28"/><stop offset="1" stop-color="#fff" stop-opacity="0"/></linearGradient><filter id="sh" x="-20%" y="-20%" width="140%" height="140%"><feDropShadow dx="0" dy="2.2" stdDeviation="1.8" flood-color="#1e1b4b" flood-opacity=".55"/></filter></defs><rect width="64" height="64" rx="15" fill="url(#bg)"/><path d="M0 15A15 15 0 0 1 15 0H49A15 15 0 0 1 64 15V30Q32 38 0 30Z" fill="url(#sheen)"/><g filter="url(#sh)"><path d="M26.04 13L32.04 13L23.96 51L17.96 51ZM40.04 13L46.04 13L37.96 51L31.96 51ZM13 22L51 22L51 28L13 28ZM13 36L51 36L51 42L13 42Z" fill="#fff" fill-opacity=".9" transform="translate(0 -0.8)"/><path d="M26.04 13L32.04 13L23.96 51L17.96 51ZM40.04 13L46.04 13L37.96 51L31.96 51ZM13 22L51 22L51 28L13 28ZM13 36L51 36L51 42L13 42Z" fill="url(#fg)"/></g></svg>